<svg xmlns="http://www.w3.org/2000/svg" viewBox="0 0 260 60" width="520" height="120" style="image-rendering: pixelated; image-rendering: crisp-edges;">
  <g transform="translate(6, 6) scale(3)" shape-rendering="crispEdges">
    <g fill="#a8703a">
      <rect x="13" y="7" width="1" height="1"/>
      <rect x="14" y="7" width="1" height="1"/>
      <rect x="13" y="8" width="1" height="1"/>
      <rect x="14" y="8" width="1" height="1"/>
    </g>
    <g fill="#2a3a4a">
      <rect x="11" y="3" width="1" height="1"/>
      <rect x="12" y="3" width="1" height="1"/>
      <rect x="11" y="4" width="1" height="1"/>
      <rect x="12" y="4" width="1" height="1"/>
      <rect x="7"  y="2" width="1" height="1" opacity="0.78"/>
      <rect x="8"  y="2" width="1" height="1" opacity="0.78"/>
      <rect x="3"  y="3" width="1" height="1" opacity="0.62"/>
      <rect x="4"  y="3" width="1" height="1" opacity="0.62"/>
      <rect x="2"  y="7" width="1" height="1" opacity="0.5"/>
      <rect x="2"  y="8" width="1" height="1" opacity="0.5"/>
      <rect x="3"  y="11" width="1" height="1" opacity="0.4"/>
      <rect x="4"  y="11" width="1" height="1" opacity="0.4"/>
      <rect x="7"  y="13" width="1" height="1" opacity="0.32"/>
      <rect x="8"  y="13" width="1" height="1" opacity="0.32"/>
      <rect x="11" y="11" width="1" height="1" opacity="0.25"/>
      <rect x="12" y="11" width="1" height="1" opacity="0.25"/>
      <rect x="13" y="6"  width="1" height="1" opacity="0.5"/>
      <rect x="13" y="9"  width="1" height="1" opacity="0.5"/>
    </g>
  </g>
  <path d="M73.44 40.38L69.92 40.38L69.92 19.74L73.44 19.74L73.44 31.07L75.68 31.07L75.68 28.29L81.44 28.29L81.44 25.41L84.99 25.41L84.99 28.99L82.08 28.99L82.08 31.84L76.29 31.84L76.29 33.92L82.08 33.92L82.08 36.80L84.99 36.80L84.99 40.38L81.44 40.38L81.44 37.54L75.68 37.54L75.68 34.69L73.44 34.69L73.44 40.38ZM99.10 40.38L89.82 40.38L89.82 37.54L86.94 37.54L86.94 28.29L89.82 28.29L89.82 25.41L99.10 25.41L99.10 28.29L102.02 28.29L102.02 37.54L99.10 37.54L99.10 40.38ZM90.46 28.99L90.46 36.80L98.46 36.80L98.46 28.99L90.46 28.99ZM118.05 40.38L108.77 40.38L108.77 37.54L105.89 37.54L105.89 19.74L109.41 19.74L109.41 25.41L118.05 25.41L118.05 28.29L120.96 28.29L120.96 37.54L118.05 37.54L118.05 40.38ZM109.41 28.99L109.41 36.80L117.41 36.80L117.41 28.99L109.41 28.99ZM136.35 40.38L127.07 40.38L127.07 37.54L124.19 37.54L124.19 28.29L127.07 28.29L127.07 25.41L136.35 25.41L136.35 28.29L139.26 28.29L139.26 37.54L136.35 37.54L136.35 40.38ZM127.71 28.99L127.71 36.80L135.71 36.80L135.71 28.99L127.71 28.99ZM146.66 40.38L143.14 40.38L143.14 28.29L146.02 28.29L146.02 25.41L155.30 25.41L155.30 28.29L158.21 28.29L158.21 31.84L154.66 31.84L154.66 28.99L146.66 28.99L146.66 40.38ZM165.60 40.38L162.08 40.38L162.08 25.41L165.60 25.41L165.60 40.38ZM165.60 23.36L162.08 23.36L162.08 19.74L165.60 19.74L165.60 23.36ZM172.35 40.38L168.83 40.38L168.83 25.41L180.99 25.41L180.99 28.29L183.90 28.29L183.90 40.38L180.35 40.38L180.35 28.99L172.35 28.99L172.35 40.38Z" fill="#2a3a4a"/>
  <path d="M191.30 40L187.78 40L187.78 36.38L191.30 36.38L191.30 40ZM207.33 40.38L198.05 40.38L198.05 37.54L195.17 37.54L195.17 28.29L198.05 28.29L198.05 25.41L207.33 25.41L207.33 28.29L210.24 28.29L210.24 36.80L213.12 36.80L213.12 40.38L209.60 40.38L209.60 37.54L207.33 37.54L207.33 40.38ZM198.69 28.99L198.69 36.80L206.69 36.80L206.69 28.99L198.69 28.99ZM219.55 40.38L216.03 40.38L216.03 25.41L219.55 25.41L219.55 40.38ZM219.55 23.36L216.03 23.36L216.03 19.74L219.55 19.74L219.55 23.36Z" fill="#a8703a"/>
</svg>
